<mxfile host="65bd71144e">
    <diagram id="HzTD8S2jFizd6N4z7d2w" name="PÃ¡gina-1">
        <mxGraphModel dx="845" dy="626" grid="1" gridSize="10" guides="1" tooltips="1" connect="1" arrows="1" fold="1" page="1" pageScale="1" pageWidth="827" pageHeight="1169" math="0" shadow="0">
            <root>
                <mxCell id="0"/>
                <mxCell id="1" parent="0"/>
                <mxCell id="hJbZo1aWGCKEWcaqYG83-1" value="" style="rounded=0;whiteSpace=wrap;html=1;strokeColor=#B3B3B3;fillColor=#B3B3B3;" parent="1" vertex="1">
                    <mxGeometry x="200" y="120" width="600" height="1050" as="geometry"/>
                </mxCell>
                <mxCell id="hJbZo1aWGCKEWcaqYG83-9" value="" style="rounded=0;whiteSpace=wrap;html=1;strokeColor=#000000;fillColor=#E6E6E6;" parent="1" vertex="1">
                    <mxGeometry x="250" y="250" width="500" height="390" as="geometry"/>
                </mxCell>
                <mxCell id="hJbZo1aWGCKEWcaqYG83-22" value="" style="rounded=0;whiteSpace=wrap;html=1;strokeColor=#000000;fillColor=#FF3399;gradientColor=none;" parent="1" vertex="1">
                    <mxGeometry x="250" y="640" width="500" height="530" as="geometry"/>
                </mxCell>
                <mxCell id="hJbZo1aWGCKEWcaqYG83-23" value="" style="rounded=0;whiteSpace=wrap;html=1;strokeColor=#000000;fillColor=#999999;gradientColor=none;" parent="1" vertex="1">
                    <mxGeometry x="275" y="647" width="450" height="40" as="geometry"/>
                </mxCell>
                <mxCell id="hJbZo1aWGCKEWcaqYG83-25" value="" style="rounded=0;whiteSpace=wrap;html=1;" parent="1" vertex="1">
                    <mxGeometry x="300" y="658" width="260" height="20" as="geometry"/>
                </mxCell>
                <mxCell id="hJbZo1aWGCKEWcaqYG83-35" value="" style="group" parent="1" vertex="1" connectable="0">
                    <mxGeometry x="200" y="120" width="600" height="130" as="geometry"/>
                </mxCell>
                <mxCell id="hJbZo1aWGCKEWcaqYG83-2" value="" style="rounded=0;whiteSpace=wrap;html=1;strokeColor=#000000;fillColor=#FF8000;" parent="hJbZo1aWGCKEWcaqYG83-35" vertex="1">
                    <mxGeometry width="600" height="130" as="geometry"/>
                </mxCell>
                <mxCell id="hJbZo1aWGCKEWcaqYG83-32" value="" style="endArrow=none;html=1;rounded=0;exitX=0;exitY=0;exitDx=0;exitDy=0;entryX=1;entryY=1;entryDx=0;entryDy=0;" parent="hJbZo1aWGCKEWcaqYG83-35" source="hJbZo1aWGCKEWcaqYG83-2" target="hJbZo1aWGCKEWcaqYG83-2" edge="1">
                    <mxGeometry width="50" height="50" relative="1" as="geometry">
                        <mxPoint x="20" y="20" as="sourcePoint"/>
                        <mxPoint x="120" y="70" as="targetPoint"/>
                    </mxGeometry>
                </mxCell>
                <mxCell id="hJbZo1aWGCKEWcaqYG83-34" value="" style="endArrow=none;html=1;rounded=0;exitX=0;exitY=1;exitDx=0;exitDy=0;entryX=1;entryY=0;entryDx=0;entryDy=0;" parent="hJbZo1aWGCKEWcaqYG83-35" source="hJbZo1aWGCKEWcaqYG83-2" target="hJbZo1aWGCKEWcaqYG83-2" edge="1">
                    <mxGeometry width="50" height="50" relative="1" as="geometry">
                        <mxPoint x="10" y="10" as="sourcePoint"/>
                        <mxPoint x="610" y="140" as="targetPoint"/>
                    </mxGeometry>
                </mxCell>
                <mxCell id="hJbZo1aWGCKEWcaqYG83-134" value="1200px" style="text;html=1;align=center;verticalAlign=middle;resizable=0;points=[];autosize=1;strokeColor=none;fillColor=none;" parent="hJbZo1aWGCKEWcaqYG83-35" vertex="1">
                    <mxGeometry x="275" y="110" width="50" height="20" as="geometry"/>
                </mxCell>
                <mxCell id="18" value="80px" style="text;html=1;align=center;verticalAlign=middle;resizable=0;points=[];autosize=1;strokeColor=none;rotation=-90;" parent="hJbZo1aWGCKEWcaqYG83-35" vertex="1">
                    <mxGeometry x="460" y="55" width="40" height="20" as="geometry"/>
                </mxCell>
                <mxCell id="19" value="" style="endArrow=classic;html=1;rounded=0;endSize=9;targetPerimeterSpacing=1;strokeColor=#000000;strokeWidth=2;entryX=0.25;entryY=0;entryDx=0;entryDy=0;" parent="hJbZo1aWGCKEWcaqYG83-35" target="hJbZo1aWGCKEWcaqYG83-4" edge="1">
                    <mxGeometry width="50" height="50" relative="1" as="geometry">
                        <mxPoint x="-30" y="100" as="sourcePoint"/>
                        <mxPoint x="145" y="100" as="targetPoint"/>
                        <Array as="points">
                            <mxPoint x="130" y="100"/>
                            <mxPoint x="130" y="-30"/>
                            <mxPoint x="223" y="-30"/>
                        </Array>
                    </mxGeometry>
                </mxCell>
                <mxCell id="hJbZo1aWGCKEWcaqYG83-4" value="" style="rounded=0;whiteSpace=wrap;html=1;" parent="1" vertex="1">
                    <mxGeometry x="340" y="155" width="330" height="60" as="geometry"/>
                </mxCell>
                <mxCell id="hJbZo1aWGCKEWcaqYG83-33" value="" style="group" parent="1" vertex="1" connectable="0">
                    <mxGeometry x="210" y="130" width="100" height="50" as="geometry"/>
                </mxCell>
                <mxCell id="hJbZo1aWGCKEWcaqYG83-3" value="" style="rounded=0;whiteSpace=wrap;html=1;strokeColor=#000000;fillColor=#99CCFF;" parent="hJbZo1aWGCKEWcaqYG83-33" vertex="1">
                    <mxGeometry width="100" height="50" as="geometry"/>
                </mxCell>
                <mxCell id="hJbZo1aWGCKEWcaqYG83-6" value="" style="endArrow=none;html=1;rounded=0;exitX=0;exitY=1;exitDx=0;exitDy=0;entryX=1;entryY=0;entryDx=0;entryDy=0;" parent="hJbZo1aWGCKEWcaqYG83-33" source="hJbZo1aWGCKEWcaqYG83-3" target="hJbZo1aWGCKEWcaqYG83-3" edge="1">
                    <mxGeometry width="50" height="50" relative="1" as="geometry">
                        <mxPoint x="20" y="50" as="sourcePoint"/>
                        <mxPoint x="70" as="targetPoint"/>
                    </mxGeometry>
                </mxCell>
                <mxCell id="hJbZo1aWGCKEWcaqYG83-7" value="" style="endArrow=none;html=1;rounded=0;exitX=0;exitY=0;exitDx=0;exitDy=0;entryX=1;entryY=1;entryDx=0;entryDy=0;" parent="hJbZo1aWGCKEWcaqYG83-33" source="hJbZo1aWGCKEWcaqYG83-3" target="hJbZo1aWGCKEWcaqYG83-3" edge="1">
                    <mxGeometry width="50" height="50" relative="1" as="geometry">
                        <mxPoint x="10" y="60" as="sourcePoint"/>
                        <mxPoint x="110" y="10" as="targetPoint"/>
                    </mxGeometry>
                </mxCell>
                <mxCell id="opukVP729gbeJaeNTls5-85" value="" style="endArrow=classic;startArrow=classic;html=1;rounded=0;endSize=8;strokeWidth=2;strokeColor=#FF0000;" parent="hJbZo1aWGCKEWcaqYG83-33" edge="1">
                    <mxGeometry width="50" height="50" relative="1" as="geometry">
                        <mxPoint y="-0.6899999999999977" as="sourcePoint"/>
                        <mxPoint x="100" y="-1" as="targetPoint"/>
                    </mxGeometry>
                </mxCell>
                <mxCell id="opukVP729gbeJaeNTls5-86" value="200px" style="text;html=1;align=center;verticalAlign=middle;resizable=0;points=[];autosize=1;strokeColor=none;fillColor=none;" parent="hJbZo1aWGCKEWcaqYG83-33" vertex="1">
                    <mxGeometry x="25" width="50" height="20" as="geometry"/>
                </mxCell>
                <mxCell id="hJbZo1aWGCKEWcaqYG83-36" value="" style="group" parent="1" vertex="1" connectable="0">
                    <mxGeometry x="250" y="250" width="500" height="210" as="geometry"/>
                </mxCell>
                <mxCell id="hJbZo1aWGCKEWcaqYG83-15" value="" style="rounded=0;whiteSpace=wrap;html=1;strokeColor=#000000;fillColor=#CC99FF;" parent="hJbZo1aWGCKEWcaqYG83-36" vertex="1">
                    <mxGeometry width="500" height="210" as="geometry"/>
                </mxCell>
                <mxCell id="hJbZo1aWGCKEWcaqYG83-16" value="" style="rounded=0;whiteSpace=wrap;html=1;" parent="hJbZo1aWGCKEWcaqYG83-36" vertex="1">
                    <mxGeometry x="30" y="20" width="430" height="20" as="geometry"/>
                </mxCell>
                <mxCell id="hJbZo1aWGCKEWcaqYG83-17" value="" style="rounded=0;whiteSpace=wrap;html=1;" parent="hJbZo1aWGCKEWcaqYG83-36" vertex="1">
                    <mxGeometry x="30" y="50" width="430" height="20" as="geometry"/>
                </mxCell>
                <mxCell id="hJbZo1aWGCKEWcaqYG83-18" value="" style="rounded=0;whiteSpace=wrap;html=1;" parent="hJbZo1aWGCKEWcaqYG83-36" vertex="1">
                    <mxGeometry x="30" y="80" width="430" height="20" as="geometry"/>
                </mxCell>
                <mxCell id="hJbZo1aWGCKEWcaqYG83-19" value="" style="rounded=0;whiteSpace=wrap;html=1;" parent="hJbZo1aWGCKEWcaqYG83-36" vertex="1">
                    <mxGeometry x="30" y="110" width="430" height="20" as="geometry"/>
                </mxCell>
                <mxCell id="hJbZo1aWGCKEWcaqYG83-20" value="" style="rounded=0;whiteSpace=wrap;html=1;" parent="hJbZo1aWGCKEWcaqYG83-36" vertex="1">
                    <mxGeometry x="30" y="140" width="430" height="20" as="geometry"/>
                </mxCell>
                <mxCell id="hJbZo1aWGCKEWcaqYG83-21" value="" style="rounded=0;whiteSpace=wrap;html=1;" parent="hJbZo1aWGCKEWcaqYG83-36" vertex="1">
                    <mxGeometry x="30" y="170" width="430" height="20" as="geometry"/>
                </mxCell>
                <mxCell id="hJbZo1aWGCKEWcaqYG83-133" value="" style="endArrow=classic;startArrow=classic;html=1;rounded=0;endSize=8;strokeWidth=2;strokeColor=#FF0000;" parent="hJbZo1aWGCKEWcaqYG83-36" edge="1">
                    <mxGeometry width="50" height="50" relative="1" as="geometry">
                        <mxPoint as="sourcePoint"/>
                        <mxPoint x="500" as="targetPoint"/>
                    </mxGeometry>
                </mxCell>
                <mxCell id="hJbZo1aWGCKEWcaqYG83-140" value="1100px" style="text;html=1;align=center;verticalAlign=middle;resizable=0;points=[];autosize=1;strokeColor=none;fillColor=none;" parent="hJbZo1aWGCKEWcaqYG83-36" vertex="1">
                    <mxGeometry x="225" width="50" height="20" as="geometry"/>
                </mxCell>
                <mxCell id="hJbZo1aWGCKEWcaqYG83-42" value="" style="rounded=0;whiteSpace=wrap;html=1;strokeColor=#000000;fillColor=#FFB366;gradientColor=none;" parent="1" vertex="1">
                    <mxGeometry x="250" y="690" width="500" height="130" as="geometry"/>
                </mxCell>
                <mxCell id="hJbZo1aWGCKEWcaqYG83-29" value="" style="rounded=0;whiteSpace=wrap;html=1;strokeColor=#000000;fillColor=#FFFF99;gradientColor=none;" parent="1" vertex="1">
                    <mxGeometry x="270" y="730" width="460" height="70" as="geometry"/>
                </mxCell>
                <mxCell id="hJbZo1aWGCKEWcaqYG83-28" value="" style="rounded=0;whiteSpace=wrap;html=1;strokeColor=#000000;fillColor=#CCFF99;gradientColor=none;" parent="1" vertex="1">
                    <mxGeometry x="320" y="700" width="360" height="20" as="geometry"/>
                </mxCell>
                <mxCell id="hJbZo1aWGCKEWcaqYG83-43" value="" style="rounded=0;whiteSpace=wrap;html=1;strokeColor=#000000;fillColor=#33FFFF;gradientColor=none;" parent="1" vertex="1">
                    <mxGeometry x="200" y="820" width="600" height="120" as="geometry"/>
                </mxCell>
                <mxCell id="hJbZo1aWGCKEWcaqYG83-45" value="" style="group" parent="1" vertex="1" connectable="0">
                    <mxGeometry x="280" y="658" width="20" height="20" as="geometry"/>
                </mxCell>
                <mxCell id="hJbZo1aWGCKEWcaqYG83-24" value="" style="whiteSpace=wrap;html=1;aspect=fixed;strokeColor=#000000;fillColor=#4D4D4D;gradientColor=none;" parent="hJbZo1aWGCKEWcaqYG83-45" vertex="1">
                    <mxGeometry width="20" height="20" as="geometry"/>
                </mxCell>
                <mxCell id="hJbZo1aWGCKEWcaqYG83-26" value="" style="endArrow=none;html=1;rounded=0;entryX=0;entryY=0;entryDx=0;entryDy=0;exitX=0;exitY=1;exitDx=0;exitDy=0;" parent="hJbZo1aWGCKEWcaqYG83-45" source="hJbZo1aWGCKEWcaqYG83-24" target="hJbZo1aWGCKEWcaqYG83-25" edge="1">
                    <mxGeometry width="50" height="50" relative="1" as="geometry">
                        <mxPoint x="-10" y="50" as="sourcePoint"/>
                        <mxPoint x="40" as="targetPoint"/>
                    </mxGeometry>
                </mxCell>
                <mxCell id="hJbZo1aWGCKEWcaqYG83-27" value="" style="endArrow=none;html=1;rounded=0;entryX=0;entryY=1;entryDx=0;entryDy=0;exitX=0;exitY=0;exitDx=0;exitDy=0;" parent="hJbZo1aWGCKEWcaqYG83-45" source="hJbZo1aWGCKEWcaqYG83-24" target="hJbZo1aWGCKEWcaqYG83-25" edge="1">
                    <mxGeometry width="50" height="50" relative="1" as="geometry">
                        <mxPoint x="10" y="30" as="sourcePoint"/>
                        <mxPoint x="30.000000000000114" y="10" as="targetPoint"/>
                    </mxGeometry>
                </mxCell>
                <mxCell id="hJbZo1aWGCKEWcaqYG83-71" value="" style="group" parent="1" vertex="1" connectable="0">
                    <mxGeometry x="200" y="835" width="270" height="85" as="geometry"/>
                </mxCell>
                <mxCell id="hJbZo1aWGCKEWcaqYG83-66" value="" style="rounded=0;whiteSpace=wrap;html=1;strokeColor=#000000;fillColor=#99FFFF;gradientColor=none;" parent="hJbZo1aWGCKEWcaqYG83-71" vertex="1">
                    <mxGeometry width="130" height="85" as="geometry"/>
                </mxCell>
                <mxCell id="hJbZo1aWGCKEWcaqYG83-69" value="" style="endArrow=none;html=1;rounded=0;exitX=0;exitY=1;exitDx=0;exitDy=0;entryX=1;entryY=0;entryDx=0;entryDy=0;" parent="hJbZo1aWGCKEWcaqYG83-71" source="hJbZo1aWGCKEWcaqYG83-66" target="hJbZo1aWGCKEWcaqYG83-66" edge="1">
                    <mxGeometry width="50" height="50" relative="1" as="geometry">
                        <mxPoint x="30" y="75" as="sourcePoint"/>
                        <mxPoint x="80" y="25" as="targetPoint"/>
                    </mxGeometry>
                </mxCell>
                <mxCell id="hJbZo1aWGCKEWcaqYG83-70" value="" style="endArrow=none;html=1;rounded=0;exitX=0;exitY=0;exitDx=0;exitDy=0;entryX=1;entryY=1;entryDx=0;entryDy=0;" parent="hJbZo1aWGCKEWcaqYG83-71" source="hJbZo1aWGCKEWcaqYG83-66" target="hJbZo1aWGCKEWcaqYG83-66" edge="1">
                    <mxGeometry width="50" height="50" relative="1" as="geometry">
                        <mxPoint x="10" y="95" as="sourcePoint"/>
                        <mxPoint x="140" y="10" as="targetPoint"/>
                    </mxGeometry>
                </mxCell>
                <mxCell id="hJbZo1aWGCKEWcaqYG83-72" value="" style="group" parent="hJbZo1aWGCKEWcaqYG83-71" vertex="1" connectable="0">
                    <mxGeometry x="130" width="140" height="85" as="geometry"/>
                </mxCell>
                <mxCell id="hJbZo1aWGCKEWcaqYG83-73" value="" style="rounded=0;whiteSpace=wrap;html=1;strokeColor=#000000;fillColor=#99FFFF;gradientColor=none;" parent="hJbZo1aWGCKEWcaqYG83-72" vertex="1">
                    <mxGeometry width="120" height="85" as="geometry"/>
                </mxCell>
                <mxCell id="hJbZo1aWGCKEWcaqYG83-74" value="" style="endArrow=none;html=1;rounded=0;exitX=0;exitY=1;exitDx=0;exitDy=0;entryX=1;entryY=0;entryDx=0;entryDy=0;" parent="hJbZo1aWGCKEWcaqYG83-72" source="hJbZo1aWGCKEWcaqYG83-73" target="hJbZo1aWGCKEWcaqYG83-73" edge="1">
                    <mxGeometry width="50" height="50" relative="1" as="geometry">
                        <mxPoint x="27.692307692307693" y="75" as="sourcePoint"/>
                        <mxPoint x="73.84615384615385" y="25" as="targetPoint"/>
                    </mxGeometry>
                </mxCell>
                <mxCell id="hJbZo1aWGCKEWcaqYG83-75" value="" style="endArrow=none;html=1;rounded=0;exitX=0;exitY=0;exitDx=0;exitDy=0;entryX=1;entryY=1;entryDx=0;entryDy=0;" parent="hJbZo1aWGCKEWcaqYG83-72" source="hJbZo1aWGCKEWcaqYG83-73" target="hJbZo1aWGCKEWcaqYG83-73" edge="1">
                    <mxGeometry width="50" height="50" relative="1" as="geometry">
                        <mxPoint x="9.230769230769232" y="95" as="sourcePoint"/>
                        <mxPoint x="129.23076923076923" y="10" as="targetPoint"/>
                    </mxGeometry>
                </mxCell>
                <mxCell id="27" value="288px todos" style="text;html=1;align=center;verticalAlign=middle;resizable=0;points=[];autosize=1;strokeColor=none;fillColor=none;rotation=-90;" parent="hJbZo1aWGCKEWcaqYG83-72" vertex="1">
                    <mxGeometry x="65" y="32.5" width="80" height="20" as="geometry"/>
                </mxCell>
                <mxCell id="hJbZo1aWGCKEWcaqYG83-84" value="" style="group" parent="hJbZo1aWGCKEWcaqYG83-71" vertex="1" connectable="0">
                    <mxGeometry x="10" y="17.5" width="50" height="50" as="geometry"/>
                </mxCell>
                <mxCell id="hJbZo1aWGCKEWcaqYG83-85" value="" style="whiteSpace=wrap;html=1;aspect=fixed;strokeColor=#000000;fillColor=#4D4D4D;gradientColor=none;" parent="hJbZo1aWGCKEWcaqYG83-84" vertex="1">
                    <mxGeometry width="50" height="50" as="geometry"/>
                </mxCell>
                <mxCell id="hJbZo1aWGCKEWcaqYG83-86" value="" style="endArrow=none;html=1;rounded=0;" parent="hJbZo1aWGCKEWcaqYG83-84" edge="1">
                    <mxGeometry width="50" height="50" relative="1" as="geometry">
                        <mxPoint y="50" as="sourcePoint"/>
                        <mxPoint x="50" as="targetPoint"/>
                    </mxGeometry>
                </mxCell>
                <mxCell id="hJbZo1aWGCKEWcaqYG83-87" value="" style="endArrow=none;html=1;rounded=0;exitX=0;exitY=0;exitDx=0;exitDy=0;entryX=1;entryY=1;entryDx=0;entryDy=0;" parent="hJbZo1aWGCKEWcaqYG83-84" source="hJbZo1aWGCKEWcaqYG83-85" target="hJbZo1aWGCKEWcaqYG83-85" edge="1">
                    <mxGeometry width="50" height="50" relative="1" as="geometry">
                        <mxPoint x="10" y="60" as="sourcePoint"/>
                        <mxPoint x="60" y="10" as="targetPoint"/>
                    </mxGeometry>
                </mxCell>
                <mxCell id="opukVP729gbeJaeNTls5-36" value="" style="endArrow=classic;startArrow=classic;html=1;rounded=0;endSize=8;strokeWidth=2;strokeColor=#FF0000;" parent="hJbZo1aWGCKEWcaqYG83-71" edge="1">
                    <mxGeometry width="50" height="50" relative="1" as="geometry">
                        <mxPoint x="10" y="17.5" as="sourcePoint"/>
                        <mxPoint x="60" y="18" as="targetPoint"/>
                    </mxGeometry>
                </mxCell>
                <mxCell id="opukVP729gbeJaeNTls5-37" value="100px" style="text;html=1;align=center;verticalAlign=middle;resizable=0;points=[];autosize=1;strokeColor=none;fillColor=none;" parent="hJbZo1aWGCKEWcaqYG83-71" vertex="1">
                    <mxGeometry x="10" y="-2.5" width="50" height="20" as="geometry"/>
                </mxCell>
                <mxCell id="hJbZo1aWGCKEWcaqYG83-76" value="" style="group" parent="1" vertex="1" connectable="0">
                    <mxGeometry x="450" y="835" width="130" height="85" as="geometry"/>
                </mxCell>
                <mxCell id="hJbZo1aWGCKEWcaqYG83-77" value="" style="rounded=0;whiteSpace=wrap;html=1;strokeColor=#000000;fillColor=#99FFFF;gradientColor=none;" parent="hJbZo1aWGCKEWcaqYG83-76" vertex="1">
                    <mxGeometry width="130" height="85" as="geometry"/>
                </mxCell>
                <mxCell id="hJbZo1aWGCKEWcaqYG83-78" value="" style="endArrow=none;html=1;rounded=0;exitX=0;exitY=1;exitDx=0;exitDy=0;entryX=1;entryY=0;entryDx=0;entryDy=0;" parent="hJbZo1aWGCKEWcaqYG83-76" source="hJbZo1aWGCKEWcaqYG83-77" target="hJbZo1aWGCKEWcaqYG83-77" edge="1">
                    <mxGeometry width="50" height="50" relative="1" as="geometry">
                        <mxPoint x="30" y="75" as="sourcePoint"/>
                        <mxPoint x="80" y="25" as="targetPoint"/>
                    </mxGeometry>
                </mxCell>
                <mxCell id="hJbZo1aWGCKEWcaqYG83-79" value="" style="endArrow=none;html=1;rounded=0;exitX=0;exitY=0;exitDx=0;exitDy=0;entryX=1;entryY=1;entryDx=0;entryDy=0;" parent="hJbZo1aWGCKEWcaqYG83-76" source="hJbZo1aWGCKEWcaqYG83-77" target="hJbZo1aWGCKEWcaqYG83-77" edge="1">
                    <mxGeometry width="50" height="50" relative="1" as="geometry">
                        <mxPoint x="10" y="95" as="sourcePoint"/>
                        <mxPoint x="139.99999999999997" y="10" as="targetPoint"/>
                    </mxGeometry>
                </mxCell>
                <mxCell id="opukVP729gbeJaeNTls5-34" value="" style="endArrow=classic;startArrow=classic;html=1;rounded=0;endSize=8;strokeWidth=2;strokeColor=#FF0000;" parent="hJbZo1aWGCKEWcaqYG83-76" edge="1">
                    <mxGeometry width="50" height="50" relative="1" as="geometry">
                        <mxPoint x="-250" as="sourcePoint"/>
                        <mxPoint x="-120" as="targetPoint"/>
                    </mxGeometry>
                </mxCell>
                <mxCell id="hJbZo1aWGCKEWcaqYG83-80" value="" style="group" parent="1" vertex="1" connectable="0">
                    <mxGeometry x="580" y="835" width="220" height="85" as="geometry"/>
                </mxCell>
                <mxCell id="hJbZo1aWGCKEWcaqYG83-81" value="" style="rounded=0;whiteSpace=wrap;html=1;strokeColor=#000000;fillColor=#99FFFF;gradientColor=none;" parent="hJbZo1aWGCKEWcaqYG83-80" vertex="1">
                    <mxGeometry width="110" height="85" as="geometry"/>
                </mxCell>
                <mxCell id="hJbZo1aWGCKEWcaqYG83-82" value="" style="endArrow=none;html=1;rounded=0;exitX=0;exitY=1;exitDx=0;exitDy=0;entryX=1;entryY=0;entryDx=0;entryDy=0;" parent="hJbZo1aWGCKEWcaqYG83-80" source="hJbZo1aWGCKEWcaqYG83-81" target="hJbZo1aWGCKEWcaqYG83-81" edge="1">
                    <mxGeometry width="50" height="50" relative="1" as="geometry">
                        <mxPoint x="27.692307692307693" y="75" as="sourcePoint"/>
                        <mxPoint x="73.84615384615385" y="25" as="targetPoint"/>
                    </mxGeometry>
                </mxCell>
                <mxCell id="hJbZo1aWGCKEWcaqYG83-83" value="" style="endArrow=none;html=1;rounded=0;exitX=0;exitY=0;exitDx=0;exitDy=0;entryX=1;entryY=1;entryDx=0;entryDy=0;" parent="hJbZo1aWGCKEWcaqYG83-80" source="hJbZo1aWGCKEWcaqYG83-81" target="hJbZo1aWGCKEWcaqYG83-81" edge="1">
                    <mxGeometry width="50" height="50" relative="1" as="geometry">
                        <mxPoint x="9.230769230769232" y="95" as="sourcePoint"/>
                        <mxPoint x="129.23076923076923" y="10" as="targetPoint"/>
                    </mxGeometry>
                </mxCell>
                <mxCell id="hJbZo1aWGCKEWcaqYG83-95" value="" style="group" parent="hJbZo1aWGCKEWcaqYG83-80" vertex="1" connectable="0">
                    <mxGeometry x="110" width="110" height="85" as="geometry"/>
                </mxCell>
                <mxCell id="hJbZo1aWGCKEWcaqYG83-96" value="" style="rounded=0;whiteSpace=wrap;html=1;strokeColor=#000000;fillColor=#99FFFF;gradientColor=none;" parent="hJbZo1aWGCKEWcaqYG83-95" vertex="1">
                    <mxGeometry width="110" height="85" as="geometry"/>
                </mxCell>
                <mxCell id="hJbZo1aWGCKEWcaqYG83-97" value="" style="endArrow=none;html=1;rounded=0;exitX=0;exitY=1;exitDx=0;exitDy=0;entryX=1;entryY=0;entryDx=0;entryDy=0;" parent="hJbZo1aWGCKEWcaqYG83-95" source="hJbZo1aWGCKEWcaqYG83-96" target="hJbZo1aWGCKEWcaqYG83-96" edge="1">
                    <mxGeometry width="50" height="50" relative="1" as="geometry">
                        <mxPoint x="25.384615384615383" y="75" as="sourcePoint"/>
                        <mxPoint x="67.6923076923077" y="25" as="targetPoint"/>
                    </mxGeometry>
                </mxCell>
                <mxCell id="hJbZo1aWGCKEWcaqYG83-98" value="" style="endArrow=none;html=1;rounded=0;exitX=0;exitY=0;exitDx=0;exitDy=0;entryX=1;entryY=1;entryDx=0;entryDy=0;" parent="hJbZo1aWGCKEWcaqYG83-95" source="hJbZo1aWGCKEWcaqYG83-96" target="hJbZo1aWGCKEWcaqYG83-96" edge="1">
                    <mxGeometry width="50" height="50" relative="1" as="geometry">
                        <mxPoint x="8.461538461538462" y="95" as="sourcePoint"/>
                        <mxPoint x="118.46153846153845" y="10" as="targetPoint"/>
                    </mxGeometry>
                </mxCell>
                <mxCell id="hJbZo1aWGCKEWcaqYG83-103" value="" style="group" parent="hJbZo1aWGCKEWcaqYG83-95" vertex="1" connectable="0">
                    <mxGeometry x="50" y="17.5" width="50" height="50" as="geometry"/>
                </mxCell>
                <mxCell id="hJbZo1aWGCKEWcaqYG83-104" value="" style="whiteSpace=wrap;html=1;aspect=fixed;strokeColor=#000000;fillColor=#4D4D4D;gradientColor=none;" parent="hJbZo1aWGCKEWcaqYG83-103" vertex="1">
                    <mxGeometry width="50" height="50" as="geometry"/>
                </mxCell>
                <mxCell id="hJbZo1aWGCKEWcaqYG83-105" value="" style="endArrow=none;html=1;rounded=0;" parent="hJbZo1aWGCKEWcaqYG83-103" edge="1">
                    <mxGeometry width="50" height="50" relative="1" as="geometry">
                        <mxPoint y="50" as="sourcePoint"/>
                        <mxPoint x="50" as="targetPoint"/>
                    </mxGeometry>
                </mxCell>
                <mxCell id="hJbZo1aWGCKEWcaqYG83-106" value="" style="endArrow=none;html=1;rounded=0;exitX=0;exitY=0;exitDx=0;exitDy=0;entryX=1;entryY=1;entryDx=0;entryDy=0;" parent="hJbZo1aWGCKEWcaqYG83-103" source="hJbZo1aWGCKEWcaqYG83-104" target="hJbZo1aWGCKEWcaqYG83-104" edge="1">
                    <mxGeometry width="50" height="50" relative="1" as="geometry">
                        <mxPoint x="10" y="60" as="sourcePoint"/>
                        <mxPoint x="60" y="10" as="targetPoint"/>
                    </mxGeometry>
                </mxCell>
                <mxCell id="hJbZo1aWGCKEWcaqYG83-94" value="" style="rounded=0;whiteSpace=wrap;html=1;strokeColor=#000000;fillColor=#FF0000;gradientColor=none;" parent="1" vertex="1">
                    <mxGeometry x="250" y="940" width="500" height="150" as="geometry"/>
                </mxCell>
                <mxCell id="hJbZo1aWGCKEWcaqYG83-119" value="" style="group" parent="1" vertex="1" connectable="0">
                    <mxGeometry x="300" y="950" width="150" height="100" as="geometry"/>
                </mxCell>
                <mxCell id="hJbZo1aWGCKEWcaqYG83-110" value="" style="rounded=0;whiteSpace=wrap;html=1;strokeColor=#000000;fillColor=#FF99CC;gradientColor=none;" parent="hJbZo1aWGCKEWcaqYG83-119" vertex="1">
                    <mxGeometry width="150" height="100" as="geometry"/>
                </mxCell>
                <mxCell id="hJbZo1aWGCKEWcaqYG83-117" value="" style="endArrow=none;html=1;rounded=0;entryX=1;entryY=1;entryDx=0;entryDy=0;exitX=0;exitY=0;exitDx=0;exitDy=0;" parent="hJbZo1aWGCKEWcaqYG83-119" source="hJbZo1aWGCKEWcaqYG83-110" target="hJbZo1aWGCKEWcaqYG83-110" edge="1">
                    <mxGeometry width="50" height="50" relative="1" as="geometry">
                        <mxPoint x="260" y="10" as="sourcePoint"/>
                        <mxPoint x="410" y="110" as="targetPoint"/>
                    </mxGeometry>
                </mxCell>
                <mxCell id="hJbZo1aWGCKEWcaqYG83-118" value="" style="endArrow=none;html=1;rounded=0;entryX=1;entryY=0;entryDx=0;entryDy=0;exitX=0;exitY=1;exitDx=0;exitDy=0;" parent="hJbZo1aWGCKEWcaqYG83-119" source="hJbZo1aWGCKEWcaqYG83-110" target="hJbZo1aWGCKEWcaqYG83-110" edge="1">
                    <mxGeometry width="50" height="50" relative="1" as="geometry">
                        <mxPoint x="260" y="110" as="sourcePoint"/>
                        <mxPoint x="410" y="10" as="targetPoint"/>
                    </mxGeometry>
                </mxCell>
                <mxCell id="opukVP729gbeJaeNTls5-59" value="" style="endArrow=classic;html=1;rounded=0;endSize=9;targetPerimeterSpacing=1;strokeColor=#000000;strokeWidth=2;" parent="hJbZo1aWGCKEWcaqYG83-119" edge="1">
                    <mxGeometry width="50" height="50" relative="1" as="geometry">
                        <mxPoint x="-50" y="30" as="sourcePoint"/>
                        <mxPoint y="31" as="targetPoint"/>
                        <Array as="points">
                            <mxPoint x="-50" y="30"/>
                        </Array>
                    </mxGeometry>
                </mxCell>
                <mxCell id="hJbZo1aWGCKEWcaqYG83-120" value="" style="group" parent="1" vertex="1" connectable="0">
                    <mxGeometry x="550" y="950" width="150" height="100" as="geometry"/>
                </mxCell>
                <mxCell id="hJbZo1aWGCKEWcaqYG83-109" value="" style="rounded=0;whiteSpace=wrap;html=1;strokeColor=#000000;fillColor=#FF99CC;gradientColor=none;" parent="hJbZo1aWGCKEWcaqYG83-120" vertex="1">
                    <mxGeometry width="150" height="100" as="geometry"/>
                </mxCell>
                <mxCell id="hJbZo1aWGCKEWcaqYG83-114" value="" style="endArrow=none;html=1;rounded=0;entryX=1;entryY=0;entryDx=0;entryDy=0;exitX=0;exitY=1;exitDx=0;exitDy=0;" parent="hJbZo1aWGCKEWcaqYG83-120" source="hJbZo1aWGCKEWcaqYG83-109" edge="1">
                    <mxGeometry width="50" height="50" relative="1" as="geometry">
                        <mxPoint y="100" as="sourcePoint"/>
                        <mxPoint x="150" as="targetPoint"/>
                    </mxGeometry>
                </mxCell>
                <mxCell id="hJbZo1aWGCKEWcaqYG83-116" value="" style="endArrow=none;html=1;rounded=0;entryX=1;entryY=1;entryDx=0;entryDy=0;exitX=0;exitY=0;exitDx=0;exitDy=0;" parent="hJbZo1aWGCKEWcaqYG83-120" source="hJbZo1aWGCKEWcaqYG83-109" target="hJbZo1aWGCKEWcaqYG83-109" edge="1">
                    <mxGeometry width="50" height="50" relative="1" as="geometry">
                        <mxPoint x="-115" y="40" as="sourcePoint"/>
                        <mxPoint x="35" y="140" as="targetPoint"/>
                    </mxGeometry>
                </mxCell>
                <mxCell id="hJbZo1aWGCKEWcaqYG83-122" value="" style="group" parent="1" vertex="1" connectable="0">
                    <mxGeometry x="425" y="980" width="155" height="100" as="geometry"/>
                </mxCell>
                <mxCell id="hJbZo1aWGCKEWcaqYG83-108" value="" style="rounded=0;whiteSpace=wrap;html=1;strokeColor=#000000;fillColor=#FF99CC;gradientColor=none;" parent="hJbZo1aWGCKEWcaqYG83-122" vertex="1">
                    <mxGeometry width="150" height="100" as="geometry"/>
                </mxCell>
                <mxCell id="hJbZo1aWGCKEWcaqYG83-113" value="" style="endArrow=none;html=1;rounded=0;entryX=1;entryY=0;entryDx=0;entryDy=0;exitX=0;exitY=1;exitDx=0;exitDy=0;" parent="hJbZo1aWGCKEWcaqYG83-122" source="hJbZo1aWGCKEWcaqYG83-108" target="hJbZo1aWGCKEWcaqYG83-108" edge="1">
                    <mxGeometry width="50" height="50" relative="1" as="geometry">
                        <mxPoint x="55" y="90" as="sourcePoint"/>
                        <mxPoint x="105" y="40" as="targetPoint"/>
                    </mxGeometry>
                </mxCell>
                <mxCell id="hJbZo1aWGCKEWcaqYG83-115" value="" style="endArrow=none;html=1;rounded=0;entryX=1;entryY=1;entryDx=0;entryDy=0;exitX=0;exitY=0;exitDx=0;exitDy=0;" parent="hJbZo1aWGCKEWcaqYG83-122" source="hJbZo1aWGCKEWcaqYG83-108" target="hJbZo1aWGCKEWcaqYG83-108" edge="1">
                    <mxGeometry width="50" height="50" relative="1" as="geometry">
                        <mxPoint x="10" y="110" as="sourcePoint"/>
                        <mxPoint x="160" y="10" as="targetPoint"/>
                    </mxGeometry>
                </mxCell>
                <mxCell id="opukVP729gbeJaeNTls5-38" value="" style="endArrow=classic;startArrow=classic;html=1;rounded=0;endSize=8;strokeWidth=2;exitX=0;exitY=0;exitDx=0;exitDy=0;entryX=1.017;entryY=0.003;entryDx=0;entryDy=0;entryPerimeter=0;strokeColor=#330000;" parent="hJbZo1aWGCKEWcaqYG83-122" source="hJbZo1aWGCKEWcaqYG83-108" target="hJbZo1aWGCKEWcaqYG83-108" edge="1">
                    <mxGeometry width="50" height="50" relative="1" as="geometry">
                        <mxPoint x="10" y="7" as="sourcePoint"/>
                        <mxPoint x="145" as="targetPoint"/>
                    </mxGeometry>
                </mxCell>
                <mxCell id="opukVP729gbeJaeNTls5-39" value="400px todos" style="text;html=1;align=center;verticalAlign=middle;resizable=0;points=[];autosize=1;strokeColor=none;fillColor=none;" parent="hJbZo1aWGCKEWcaqYG83-122" vertex="1">
                    <mxGeometry x="35" width="80" height="20" as="geometry"/>
                </mxCell>
                <mxCell id="7" value="400px todos" style="text;html=1;align=center;verticalAlign=middle;resizable=0;points=[];autosize=1;strokeColor=none;fillColor=none;rotation=-90;" parent="hJbZo1aWGCKEWcaqYG83-122" vertex="1">
                    <mxGeometry x="95" y="40" width="80" height="20" as="geometry"/>
                </mxCell>
                <mxCell id="hJbZo1aWGCKEWcaqYG83-123" value="" style="rounded=0;whiteSpace=wrap;html=1;strokeColor=#000000;fillColor=#66B2FF;gradientColor=none;" parent="1" vertex="1">
                    <mxGeometry x="250" y="1090" width="500" height="80" as="geometry"/>
                </mxCell>
                <mxCell id="hJbZo1aWGCKEWcaqYG83-124" value="" style="rounded=0;whiteSpace=wrap;html=1;" parent="1" vertex="1">
                    <mxGeometry x="250" y="1105" width="80" height="20" as="geometry"/>
                </mxCell>
                <mxCell id="hJbZo1aWGCKEWcaqYG83-125" value="" style="rounded=0;whiteSpace=wrap;html=1;" parent="1" vertex="1">
                    <mxGeometry x="490" y="1105" width="90" height="20" as="geometry"/>
                </mxCell>
                <mxCell id="hJbZo1aWGCKEWcaqYG83-126" value="" style="rounded=0;whiteSpace=wrap;html=1;fillColor=#CCFF99;" parent="1" vertex="1">
                    <mxGeometry x="330" y="1105" width="160" height="20" as="geometry"/>
                </mxCell>
                <mxCell id="hJbZo1aWGCKEWcaqYG83-127" value="" style="rounded=0;whiteSpace=wrap;html=1;fillColor=#CCFF99;" parent="1" vertex="1">
                    <mxGeometry x="580" y="1105" width="170" height="20" as="geometry"/>
                </mxCell>
                <mxCell id="hJbZo1aWGCKEWcaqYG83-129" value="" style="rounded=0;whiteSpace=wrap;html=1;strokeColor=#000000;fillColor=#CCFF99;gradientColor=none;" parent="1" vertex="1">
                    <mxGeometry x="430" y="1139.43" width="120" height="20" as="geometry"/>
                </mxCell>
                <mxCell id="hJbZo1aWGCKEWcaqYG83-131" value="" style="endArrow=classic;startArrow=classic;html=1;rounded=0;entryX=1;entryY=0;entryDx=0;entryDy=0;endSize=8;strokeWidth=2;strokeColor=#FF0000;" parent="1" target="hJbZo1aWGCKEWcaqYG83-2" edge="1">
                    <mxGeometry width="50" height="50" relative="1" as="geometry">
                        <mxPoint x="200" y="120" as="sourcePoint"/>
                        <mxPoint x="250" y="70" as="targetPoint"/>
                    </mxGeometry>
                </mxCell>
                <mxCell id="hJbZo1aWGCKEWcaqYG83-132" value="1440px" style="text;html=1;align=center;verticalAlign=middle;resizable=0;points=[];autosize=1;strokeColor=none;fillColor=none;" parent="1" vertex="1">
                    <mxGeometry x="470" y="100" width="50" height="20" as="geometry"/>
                </mxCell>
                <mxCell id="hJbZo1aWGCKEWcaqYG83-135" value="" style="endArrow=classic;html=1;rounded=0;endSize=9;targetPerimeterSpacing=1;strokeColor=#FF0000;strokeWidth=2;entryX=0;entryY=0.5;entryDx=0;entryDy=0;" parent="1" target="hJbZo1aWGCKEWcaqYG83-15" edge="1">
                    <mxGeometry width="50" height="50" relative="1" as="geometry">
                        <mxPoint x="200" y="355" as="sourcePoint"/>
                        <mxPoint x="140" y="320" as="targetPoint"/>
                    </mxGeometry>
                </mxCell>
                <mxCell id="hJbZo1aWGCKEWcaqYG83-136" value="120px" style="text;html=1;align=center;verticalAlign=middle;resizable=0;points=[];autosize=1;strokeColor=none;fillColor=none;" parent="1" vertex="1">
                    <mxGeometry x="195" y="330" width="50" height="20" as="geometry"/>
                </mxCell>
                <mxCell id="hJbZo1aWGCKEWcaqYG83-137" value="" style="endArrow=classic;html=1;rounded=0;endSize=9;targetPerimeterSpacing=1;strokeColor=#FF0000;strokeWidth=2;" parent="1" edge="1">
                    <mxGeometry width="50" height="50" relative="1" as="geometry">
                        <mxPoint x="800" y="350" as="sourcePoint"/>
                        <mxPoint x="750" y="350" as="targetPoint"/>
                    </mxGeometry>
                </mxCell>
                <mxCell id="hJbZo1aWGCKEWcaqYG83-138" value="120px" style="text;html=1;align=center;verticalAlign=middle;resizable=0;points=[];autosize=1;strokeColor=none;fillColor=none;" parent="1" vertex="1">
                    <mxGeometry x="755" y="330" width="50" height="20" as="geometry"/>
                </mxCell>
                <mxCell id="hJbZo1aWGCKEWcaqYG83-139" value="" style="endArrow=classic;startArrow=classic;html=1;rounded=0;entryX=1;entryY=0;entryDx=0;entryDy=0;endSize=8;strokeWidth=2;strokeColor=#FF0000;" parent="1" target="hJbZo1aWGCKEWcaqYG83-16" edge="1">
                    <mxGeometry width="50" height="50" relative="1" as="geometry">
                        <mxPoint x="280" y="270" as="sourcePoint"/>
                        <mxPoint x="870" y="270" as="targetPoint"/>
                    </mxGeometry>
                </mxCell>
                <mxCell id="opukVP729gbeJaeNTls5-3" value="" style="group" parent="1" vertex="1" connectable="0">
                    <mxGeometry x="200" y="460" width="600" height="180" as="geometry"/>
                </mxCell>
                <mxCell id="hJbZo1aWGCKEWcaqYG83-11" value="" style="rounded=0;whiteSpace=wrap;html=1;strokeColor=#000000;fillColor=#0000CC;" parent="opukVP729gbeJaeNTls5-3" vertex="1">
                    <mxGeometry width="600" height="180" as="geometry"/>
                </mxCell>
                <mxCell id="hJbZo1aWGCKEWcaqYG83-37" value="" style="group" parent="opukVP729gbeJaeNTls5-3" vertex="1" connectable="0">
                    <mxGeometry x="73" y="10" width="444.00000000000006" height="160" as="geometry"/>
                </mxCell>
                <mxCell id="hJbZo1aWGCKEWcaqYG83-12" value="" style="rounded=0;whiteSpace=wrap;html=1;strokeColor=#000000;fillColor=#9999FF;" parent="hJbZo1aWGCKEWcaqYG83-37" vertex="1">
                    <mxGeometry width="444.00000000000006" height="160" as="geometry"/>
                </mxCell>
                <mxCell id="hJbZo1aWGCKEWcaqYG83-13" value="" style="endArrow=none;html=1;rounded=0;exitX=1;exitY=0;exitDx=0;exitDy=0;entryX=0;entryY=1;entryDx=0;entryDy=0;" parent="hJbZo1aWGCKEWcaqYG83-37" source="hJbZo1aWGCKEWcaqYG83-12" target="hJbZo1aWGCKEWcaqYG83-12" edge="1">
                    <mxGeometry width="50" height="50" relative="1" as="geometry">
                        <mxPoint x="162" y="130" as="sourcePoint"/>
                        <mxPoint x="282" y="80" as="targetPoint"/>
                    </mxGeometry>
                </mxCell>
                <mxCell id="hJbZo1aWGCKEWcaqYG83-14" value="" style="endArrow=none;html=1;rounded=0;exitX=0;exitY=0;exitDx=0;exitDy=0;entryX=1;entryY=1;entryDx=0;entryDy=0;" parent="hJbZo1aWGCKEWcaqYG83-37" source="hJbZo1aWGCKEWcaqYG83-12" target="hJbZo1aWGCKEWcaqYG83-12" edge="1">
                    <mxGeometry width="50" height="50" relative="1" as="geometry">
                        <mxPoint x="162" y="80" as="sourcePoint"/>
                        <mxPoint x="282" y="130" as="targetPoint"/>
                    </mxGeometry>
                </mxCell>
                <mxCell id="opukVP729gbeJaeNTls5-2" value="" style="endArrow=classic;startArrow=classic;html=1;rounded=0;endSize=8;strokeWidth=2;strokeColor=#FF0000;" parent="hJbZo1aWGCKEWcaqYG83-37" edge="1">
                    <mxGeometry width="50" height="50" relative="1" as="geometry">
                        <mxPoint as="sourcePoint"/>
                        <mxPoint x="446" as="targetPoint"/>
                    </mxGeometry>
                </mxCell>
                <mxCell id="opukVP729gbeJaeNTls5-4" value="1100px" style="text;html=1;align=center;verticalAlign=middle;resizable=0;points=[];autosize=1;strokeColor=none;fillColor=none;" parent="hJbZo1aWGCKEWcaqYG83-37" vertex="1">
                    <mxGeometry x="197" y="10" width="50" height="20" as="geometry"/>
                </mxCell>
                <mxCell id="opukVP729gbeJaeNTls5-7" value="" style="endArrow=classic;html=1;rounded=0;endSize=9;targetPerimeterSpacing=1;strokeColor=#FF0000;strokeWidth=2;entryX=1;entryY=0.5;entryDx=0;entryDy=0;exitX=0;exitY=0.5;exitDx=0;exitDy=0;" parent="hJbZo1aWGCKEWcaqYG83-37" source="hJbZo1aWGCKEWcaqYG83-11" edge="1">
                    <mxGeometry width="50" height="50" relative="1" as="geometry">
                        <mxPoint x="83" y="79.28999999999999" as="sourcePoint"/>
                        <mxPoint x="-2.2737367544323206e-13" y="79.28999999999999" as="targetPoint"/>
                    </mxGeometry>
                </mxCell>
                <mxCell id="opukVP729gbeJaeNTls5-5" value="" style="endArrow=classic;html=1;rounded=0;endSize=9;targetPerimeterSpacing=1;strokeColor=#FF0000;strokeWidth=2;entryX=1;entryY=0.5;entryDx=0;entryDy=0;exitX=1;exitY=0.5;exitDx=0;exitDy=0;" parent="opukVP729gbeJaeNTls5-3" source="hJbZo1aWGCKEWcaqYG83-11" target="hJbZo1aWGCKEWcaqYG83-12" edge="1">
                    <mxGeometry width="50" height="50" relative="1" as="geometry">
                        <mxPoint x="560" y="-20" as="sourcePoint"/>
                        <mxPoint x="520" y="-20" as="targetPoint"/>
                    </mxGeometry>
                </mxCell>
                <mxCell id="opukVP729gbeJaeNTls5-6" value="170px" style="text;html=1;align=center;verticalAlign=middle;resizable=0;points=[];autosize=1;strokeColor=none;fillColor=none;" parent="opukVP729gbeJaeNTls5-3" vertex="1">
                    <mxGeometry x="535" y="70" width="50" height="20" as="geometry"/>
                </mxCell>
                <mxCell id="opukVP729gbeJaeNTls5-8" value="170px" style="text;html=1;align=center;verticalAlign=middle;resizable=0;points=[];autosize=1;strokeColor=none;fillColor=none;" parent="opukVP729gbeJaeNTls5-3" vertex="1">
                    <mxGeometry x="5" y="70" width="50" height="20" as="geometry"/>
                </mxCell>
                <mxCell id="opukVP729gbeJaeNTls5-14" value="Padding superior e inferior de 30px&lt;br&gt;y de los lados a 50px" style="text;html=1;align=center;verticalAlign=middle;resizable=0;points=[];autosize=1;strokeColor=none;fillColor=none;" parent="1" vertex="1">
                    <mxGeometry y="650" width="200" height="30" as="geometry"/>
                </mxCell>
                <mxCell id="opukVP729gbeJaeNTls5-15" value="" style="endArrow=classic;html=1;rounded=0;endSize=9;targetPerimeterSpacing=1;strokeColor=#FF0000;strokeWidth=2;exitX=1.05;exitY=0.493;exitDx=0;exitDy=0;exitPerimeter=0;entryX=-0.005;entryY=0.059;entryDx=0;entryDy=0;entryPerimeter=0;" parent="1" source="opukVP729gbeJaeNTls5-14" target="hJbZo1aWGCKEWcaqYG83-22" edge="1">
                    <mxGeometry width="50" height="50" relative="1" as="geometry">
                        <mxPoint x="760" y="689" as="sourcePoint"/>
                        <mxPoint x="270" y="680" as="targetPoint"/>
                    </mxGeometry>
                </mxCell>
                <mxCell id="opukVP729gbeJaeNTls5-16" value="" style="endArrow=classic;startArrow=classic;html=1;rounded=0;endSize=8;strokeWidth=2;strokeColor=#FF0000;" parent="1" edge="1">
                    <mxGeometry width="50" height="50" relative="1" as="geometry">
                        <mxPoint x="300" y="680" as="sourcePoint"/>
                        <mxPoint x="560" y="680" as="targetPoint"/>
                    </mxGeometry>
                </mxCell>
                <mxCell id="opukVP729gbeJaeNTls5-18" value="494px" style="text;html=1;align=center;verticalAlign=middle;resizable=0;points=[];autosize=1;strokeColor=none;fillColor=none;" parent="1" vertex="1">
                    <mxGeometry x="405" y="660" width="50" height="20" as="geometry"/>
                </mxCell>
                <mxCell id="opukVP729gbeJaeNTls5-20" value="" style="endArrow=classic;html=1;rounded=0;strokeColor=#FF0000;strokeWidth=2;" parent="1" edge="1">
                    <mxGeometry width="50" height="50" relative="1" as="geometry">
                        <mxPoint x="190" y="700" as="sourcePoint"/>
                        <mxPoint x="290" y="680" as="targetPoint"/>
                    </mxGeometry>
                </mxCell>
                <mxCell id="opukVP729gbeJaeNTls5-21" value="ancho: 100px" style="text;html=1;align=center;verticalAlign=middle;resizable=0;points=[];autosize=1;strokeColor=none;fillColor=none;" parent="1" vertex="1">
                    <mxGeometry x="100" y="690" width="90" height="20" as="geometry"/>
                </mxCell>
                <mxCell id="opukVP729gbeJaeNTls5-22" value="" style="endArrow=classic;startArrow=classic;html=1;rounded=0;endSize=8;strokeWidth=2;strokeColor=#FF0000;entryX=1;entryY=1;entryDx=0;entryDy=0;" parent="1" target="hJbZo1aWGCKEWcaqYG83-28" edge="1">
                    <mxGeometry width="50" height="50" relative="1" as="geometry">
                        <mxPoint x="320" y="720" as="sourcePoint"/>
                        <mxPoint x="580" y="720" as="targetPoint"/>
                    </mxGeometry>
                </mxCell>
                <mxCell id="opukVP729gbeJaeNTls5-23" value="600px" style="text;html=1;align=center;verticalAlign=middle;resizable=0;points=[];autosize=1;strokeColor=none;fillColor=none;" parent="1" vertex="1">
                    <mxGeometry x="475" y="700" width="50" height="20" as="geometry"/>
                </mxCell>
                <mxCell id="opukVP729gbeJaeNTls5-24" value="" style="endArrow=classic;startArrow=classic;html=1;rounded=0;endSize=8;strokeWidth=2;strokeColor=#FF0000;entryX=1;entryY=0;entryDx=0;entryDy=0;" parent="1" target="hJbZo1aWGCKEWcaqYG83-29" edge="1">
                    <mxGeometry width="50" height="50" relative="1" as="geometry">
                        <mxPoint x="272" y="730" as="sourcePoint"/>
                        <mxPoint x="718" y="730" as="targetPoint"/>
                    </mxGeometry>
                </mxCell>
                <mxCell id="opukVP729gbeJaeNTls5-25" value="1100px" style="text;html=1;align=center;verticalAlign=middle;resizable=0;points=[];autosize=1;strokeColor=none;fillColor=none;" parent="1" vertex="1">
                    <mxGeometry x="469" y="740" width="50" height="20" as="geometry"/>
                </mxCell>
                <mxCell id="opukVP729gbeJaeNTls5-26" value="" style="endArrow=classic;html=1;rounded=0;endSize=9;targetPerimeterSpacing=1;strokeColor=#FF0000;strokeWidth=2;entryX=1;entryY=0.5;entryDx=0;entryDy=0;exitX=-0.052;exitY=0.476;exitDx=0;exitDy=0;exitPerimeter=0;" parent="1" source="opukVP729gbeJaeNTls5-27" edge="1">
                    <mxGeometry width="50" height="50" relative="1" as="geometry">
                        <mxPoint x="710" y="709" as="sourcePoint"/>
                        <mxPoint x="679.9999999999998" y="709" as="targetPoint"/>
                    </mxGeometry>
                </mxCell>
                <mxCell id="opukVP729gbeJaeNTls5-27" value="300px" style="text;html=1;align=center;verticalAlign=middle;resizable=0;points=[];autosize=1;strokeColor=none;fillColor=none;" parent="1" vertex="1">
                    <mxGeometry x="750" y="700" width="50" height="20" as="geometry"/>
                </mxCell>
                <mxCell id="opukVP729gbeJaeNTls5-30" value="" style="endArrow=classic;html=1;rounded=0;endSize=9;targetPerimeterSpacing=1;strokeColor=#FF0000;strokeWidth=2;entryX=0;entryY=0.5;entryDx=0;entryDy=0;exitX=0.998;exitY=0.476;exitDx=0;exitDy=0;exitPerimeter=0;" parent="1" source="opukVP729gbeJaeNTls5-31" target="hJbZo1aWGCKEWcaqYG83-28" edge="1">
                    <mxGeometry width="50" height="50" relative="1" as="geometry">
                        <mxPoint x="170" y="709" as="sourcePoint"/>
                        <mxPoint x="139.99999999999977" y="709" as="targetPoint"/>
                    </mxGeometry>
                </mxCell>
                <mxCell id="opukVP729gbeJaeNTls5-31" value="300px" style="text;html=1;align=center;verticalAlign=middle;resizable=0;points=[];autosize=1;strokeColor=none;fillColor=none;" parent="1" vertex="1">
                    <mxGeometry x="205" y="700" width="50" height="20" as="geometry"/>
                </mxCell>
                <mxCell id="opukVP729gbeJaeNTls5-35" value="288px todos" style="text;html=1;align=center;verticalAlign=middle;resizable=0;points=[];autosize=1;strokeColor=none;fillColor=none;" parent="1" vertex="1">
                    <mxGeometry x="215" y="818" width="80" height="20" as="geometry"/>
                </mxCell>
                <mxCell id="opukVP729gbeJaeNTls5-40" value="" style="endArrow=classic;startArrow=classic;html=1;rounded=0;endSize=8;strokeWidth=2;strokeColor=#FF0000;exitX=0;exitY=1;exitDx=0;exitDy=0;" parent="1" source="hJbZo1aWGCKEWcaqYG83-124" edge="1">
                    <mxGeometry width="50" height="50" relative="1" as="geometry">
                        <mxPoint x="260" y="1124" as="sourcePoint"/>
                        <mxPoint x="330" y="1124" as="targetPoint"/>
                    </mxGeometry>
                </mxCell>
                <mxCell id="opukVP729gbeJaeNTls5-41" value="100px" style="text;html=1;align=center;verticalAlign=middle;resizable=0;points=[];autosize=1;strokeColor=none;fillColor=none;" parent="1" vertex="1">
                    <mxGeometry x="265" y="1105" width="50" height="20" as="geometry"/>
                </mxCell>
                <mxCell id="opukVP729gbeJaeNTls5-42" value="" style="endArrow=classic;startArrow=classic;html=1;rounded=0;endSize=8;strokeWidth=2;strokeColor=#FF0000;entryX=1;entryY=1;entryDx=0;entryDy=0;exitX=0;exitY=1;exitDx=0;exitDy=0;" parent="1" source="hJbZo1aWGCKEWcaqYG83-125" target="hJbZo1aWGCKEWcaqYG83-125" edge="1">
                    <mxGeometry width="50" height="50" relative="1" as="geometry">
                        <mxPoint x="500" y="1124" as="sourcePoint"/>
                        <mxPoint x="571" y="1124" as="targetPoint"/>
                    </mxGeometry>
                </mxCell>
                <mxCell id="opukVP729gbeJaeNTls5-43" value="100px" style="text;html=1;align=center;verticalAlign=middle;resizable=0;points=[];autosize=1;strokeColor=none;fillColor=none;" parent="1" vertex="1">
                    <mxGeometry x="510" y="1105" width="50" height="20" as="geometry"/>
                </mxCell>
                <mxCell id="opukVP729gbeJaeNTls5-44" value="" style="endArrow=classic;startArrow=classic;html=1;rounded=0;endSize=8;strokeWidth=2;strokeColor=#FF0000;entryX=1;entryY=1;entryDx=0;entryDy=0;exitX=0;exitY=1;exitDx=0;exitDy=0;" parent="1" source="hJbZo1aWGCKEWcaqYG83-126" target="hJbZo1aWGCKEWcaqYG83-126" edge="1">
                    <mxGeometry width="50" height="50" relative="1" as="geometry">
                        <mxPoint x="340" y="1124" as="sourcePoint"/>
                        <mxPoint x="420" y="1125" as="targetPoint"/>
                    </mxGeometry>
                </mxCell>
                <mxCell id="opukVP729gbeJaeNTls5-45" value="500px" style="text;html=1;align=center;verticalAlign=middle;resizable=0;points=[];autosize=1;strokeColor=none;fillColor=none;" parent="1" vertex="1">
                    <mxGeometry x="390" y="1105" width="50" height="20" as="geometry"/>
                </mxCell>
                <mxCell id="opukVP729gbeJaeNTls5-46" value="" style="endArrow=classic;startArrow=classic;html=1;rounded=0;endSize=8;strokeWidth=2;strokeColor=#FF0000;entryX=1;entryY=1;entryDx=0;entryDy=0;exitX=0;exitY=1;exitDx=0;exitDy=0;" parent="1" source="hJbZo1aWGCKEWcaqYG83-127" target="hJbZo1aWGCKEWcaqYG83-127" edge="1">
                    <mxGeometry width="50" height="50" relative="1" as="geometry">
                        <mxPoint x="590" y="1124" as="sourcePoint"/>
                        <mxPoint x="740" y="1125" as="targetPoint"/>
                    </mxGeometry>
                </mxCell>
                <mxCell id="opukVP729gbeJaeNTls5-47" value="500px" style="text;html=1;align=center;verticalAlign=middle;resizable=0;points=[];autosize=1;strokeColor=none;fillColor=none;" parent="1" vertex="1">
                    <mxGeometry x="640" y="1105" width="50" height="20" as="geometry"/>
                </mxCell>
                <mxCell id="opukVP729gbeJaeNTls5-48" value="" style="endArrow=classic;startArrow=classic;html=1;rounded=0;endSize=8;strokeWidth=2;strokeColor=#FF0000;entryX=1;entryY=1;entryDx=0;entryDy=0;exitX=0;exitY=1;exitDx=0;exitDy=0;" parent="1" source="hJbZo1aWGCKEWcaqYG83-129" target="hJbZo1aWGCKEWcaqYG83-129" edge="1">
                    <mxGeometry width="50" height="50" relative="1" as="geometry">
                        <mxPoint x="430" y="1149.43" as="sourcePoint"/>
                        <mxPoint x="580" y="1150.43" as="targetPoint"/>
                    </mxGeometry>
                </mxCell>
                <mxCell id="opukVP729gbeJaeNTls5-49" value="350px" style="text;html=1;align=center;verticalAlign=middle;resizable=0;points=[];autosize=1;strokeColor=none;fillColor=none;" parent="1" vertex="1">
                    <mxGeometry x="465" y="1139.43" width="50" height="20" as="geometry"/>
                </mxCell>
                <mxCell id="opukVP729gbeJaeNTls5-50" value="820px" style="text;html=1;align=center;verticalAlign=middle;resizable=0;points=[];autosize=1;strokeColor=none;fillColor=none;" parent="1" vertex="1">
                    <mxGeometry x="490" y="195" width="50" height="20" as="geometry"/>
                </mxCell>
                <mxCell id="opukVP729gbeJaeNTls5-51" value="" style="endArrow=classic;startArrow=classic;html=1;rounded=0;endSize=8;strokeWidth=2;strokeColor=#FF0000;" parent="1" edge="1">
                    <mxGeometry width="50" height="50" relative="1" as="geometry">
                        <mxPoint x="340" y="214" as="sourcePoint"/>
                        <mxPoint x="670" y="214" as="targetPoint"/>
                    </mxGeometry>
                </mxCell>
                <mxCell id="opukVP729gbeJaeNTls5-55" value="" style="endArrow=classic;html=1;rounded=0;endSize=9;targetPerimeterSpacing=1;strokeColor=#FF0000;strokeWidth=2;entryX=0;entryY=0.5;entryDx=0;entryDy=0;" parent="1" target="hJbZo1aWGCKEWcaqYG83-85" edge="1">
                    <mxGeometry width="50" height="50" relative="1" as="geometry">
                        <mxPoint x="180" y="878" as="sourcePoint"/>
                        <mxPoint x="280" y="765.8299999999999" as="targetPoint"/>
                        <Array as="points">
                            <mxPoint x="180" y="878"/>
                        </Array>
                    </mxGeometry>
                </mxCell>
                <mxCell id="opukVP729gbeJaeNTls5-56" value="50 izquierda&amp;nbsp;" style="text;html=1;align=center;verticalAlign=middle;resizable=0;points=[];autosize=1;strokeColor=none;fillColor=none;" parent="1" vertex="1">
                    <mxGeometry x="105" y="867.5" width="80" height="20" as="geometry"/>
                </mxCell>
                <mxCell id="opukVP729gbeJaeNTls5-57" value="400 izquierda" style="text;html=1;align=center;verticalAlign=middle;resizable=0;points=[];autosize=1;strokeColor=none;fillColor=none;" parent="1" vertex="1">
                    <mxGeometry x="165" y="1060" width="90" height="20" as="geometry"/>
                </mxCell>
                <mxCell id="opukVP729gbeJaeNTls5-58" value="" style="endArrow=classic;html=1;rounded=0;endSize=9;targetPerimeterSpacing=1;strokeColor=#000000;strokeWidth=2;entryX=-0.02;entryY=0.912;entryDx=0;entryDy=0;entryPerimeter=0;" parent="1" target="hJbZo1aWGCKEWcaqYG83-108" edge="1">
                    <mxGeometry width="50" height="50" relative="1" as="geometry">
                        <mxPoint x="250" y="1070.5" as="sourcePoint"/>
                        <mxPoint x="420" y="1071" as="targetPoint"/>
                        <Array as="points">
                            <mxPoint x="250" y="1070.5"/>
                        </Array>
                    </mxGeometry>
                </mxCell>
                <mxCell id="opukVP729gbeJaeNTls5-60" value="100 izquierda" style="text;html=1;align=center;verticalAlign=middle;resizable=0;points=[];autosize=1;strokeColor=none;fillColor=none;" parent="1" vertex="1">
                    <mxGeometry x="165" y="970" width="90" height="20" as="geometry"/>
                </mxCell>
                <mxCell id="opukVP729gbeJaeNTls5-61" value="700 izquierda" style="text;html=1;align=center;verticalAlign=middle;resizable=0;points=[];autosize=1;strokeColor=none;fillColor=none;" parent="1" vertex="1">
                    <mxGeometry x="165" y="950" width="90" height="20" as="geometry"/>
                </mxCell>
                <mxCell id="opukVP729gbeJaeNTls5-62" value="" style="endArrow=classic;html=1;rounded=0;endSize=9;targetPerimeterSpacing=1;strokeColor=#000000;strokeWidth=2;entryX=0.009;entryY=0.12;entryDx=0;entryDy=0;entryPerimeter=0;" parent="1" target="hJbZo1aWGCKEWcaqYG83-109" edge="1">
                    <mxGeometry width="50" height="50" relative="1" as="geometry">
                        <mxPoint x="250" y="962" as="sourcePoint"/>
                        <mxPoint x="310" y="991" as="targetPoint"/>
                        <Array as="points">
                            <mxPoint x="250" y="962"/>
                        </Array>
                    </mxGeometry>
                </mxCell>
                <mxCell id="opukVP729gbeJaeNTls5-63" value="1290 izquierda" style="text;html=1;align=center;verticalAlign=middle;resizable=0;points=[];autosize=1;strokeColor=none;fillColor=none;" parent="1" vertex="1">
                    <mxGeometry x="90" y="887.5" width="90" height="20" as="geometry"/>
                </mxCell>
                <mxCell id="opukVP729gbeJaeNTls5-64" value="" style="endArrow=classic;html=1;rounded=0;endSize=9;targetPerimeterSpacing=1;strokeColor=#FF0000;strokeWidth=2;entryX=0;entryY=1;entryDx=0;entryDy=0;" parent="1" target="hJbZo1aWGCKEWcaqYG83-104" edge="1">
                    <mxGeometry width="50" height="50" relative="1" as="geometry">
                        <mxPoint x="180" y="903" as="sourcePoint"/>
                        <mxPoint x="220" y="887.5" as="targetPoint"/>
                        <Array as="points">
                            <mxPoint x="180" y="900"/>
                        </Array>
                    </mxGeometry>
                </mxCell>
                <mxCell id="opukVP729gbeJaeNTls5-68" style="edgeStyle=orthogonalEdgeStyle;rounded=0;orthogonalLoop=1;jettySize=auto;html=1;entryX=0.003;entryY=0.361;entryDx=0;entryDy=0;entryPerimeter=0;strokeColor=#FF0000;strokeWidth=2;exitX=1;exitY=0.246;exitDx=0;exitDy=0;exitPerimeter=0;" parent="1" source="opukVP729gbeJaeNTls5-67" target="hJbZo1aWGCKEWcaqYG83-123" edge="1">
                    <mxGeometry relative="1" as="geometry"/>
                </mxCell>
                <mxCell id="opukVP729gbeJaeNTls5-67" value="padding&amp;nbsp; superior e inferior&lt;br&gt;de 30px para todos&lt;br&gt;&lt;br&gt;padding de 15px por&lt;br&gt;todos los lados&amp;nbsp;" style="text;html=1;align=center;verticalAlign=middle;resizable=0;points=[];autosize=1;strokeColor=none;fillColor=none;" parent="1" vertex="1">
                    <mxGeometry x="40" y="1090" width="160" height="70" as="geometry"/>
                </mxCell>
                <mxCell id="opukVP729gbeJaeNTls5-69" style="edgeStyle=orthogonalEdgeStyle;rounded=0;orthogonalLoop=1;jettySize=auto;html=1;entryX=0;entryY=0.5;entryDx=0;entryDy=0;strokeColor=#FF0000;strokeWidth=2;" parent="1" target="hJbZo1aWGCKEWcaqYG83-129" edge="1">
                    <mxGeometry relative="1" as="geometry">
                        <mxPoint x="300" y="1200" as="sourcePoint"/>
                        <mxPoint x="329.9999999999999" y="1200" as="targetPoint"/>
                    </mxGeometry>
                </mxCell>
                <mxCell id="opukVP729gbeJaeNTls5-70" value="margin superior e inferior&lt;br&gt;de 30px para todos&lt;br&gt;&lt;br&gt;padding de 15px por&lt;br&gt;todos los lados" style="text;html=1;align=center;verticalAlign=middle;resizable=0;points=[];autosize=1;strokeColor=none;fillColor=none;" parent="1" vertex="1">
                    <mxGeometry x="150" y="1190" width="150" height="70" as="geometry"/>
                </mxCell>
                <mxCell id="opukVP729gbeJaeNTls5-72" value="" style="endArrow=classic;startArrow=classic;html=1;rounded=0;endSize=8;strokeWidth=2;strokeColor=#330000;exitX=0;exitY=0;exitDx=0;exitDy=0;entryX=1;entryY=0;entryDx=0;entryDy=0;" parent="1" target="hJbZo1aWGCKEWcaqYG83-94" edge="1">
                    <mxGeometry width="50" height="50" relative="1" as="geometry">
                        <mxPoint x="750" y="1090" as="sourcePoint"/>
                        <mxPoint x="902.5500000000001" y="1090.3" as="targetPoint"/>
                    </mxGeometry>
                </mxCell>
                <mxCell id="opukVP729gbeJaeNTls5-73" value="600 px" style="text;html=1;align=center;verticalAlign=middle;resizable=0;points=[];autosize=1;strokeColor=none;fillColor=none;rotation=-90;" parent="1" vertex="1">
                    <mxGeometry x="712" y="1005" width="50" height="20" as="geometry"/>
                </mxCell>
                <mxCell id="opukVP729gbeJaeNTls5-76" style="edgeStyle=orthogonalEdgeStyle;rounded=0;orthogonalLoop=1;jettySize=auto;html=1;strokeColor=#FF0000;strokeWidth=2;exitX=0.998;exitY=0.37;exitDx=0;exitDy=0;exitPerimeter=0;" parent="1" source="opukVP729gbeJaeNTls5-77" edge="1">
                    <mxGeometry relative="1" as="geometry">
                        <mxPoint x="70" y="811" as="sourcePoint"/>
                        <mxPoint x="270" y="780" as="targetPoint"/>
                        <Array as="points">
                            <mxPoint x="160" y="811"/>
                            <mxPoint x="170" y="811"/>
                            <mxPoint x="170" y="780"/>
                            <mxPoint x="270" y="780"/>
                        </Array>
                    </mxGeometry>
                </mxCell>
                <mxCell id="opukVP729gbeJaeNTls5-77" value="margin superior e inferior&lt;br&gt;de 30px para todos" style="text;html=1;align=center;verticalAlign=middle;resizable=0;points=[];autosize=1;strokeColor=none;fillColor=none;" parent="1" vertex="1">
                    <mxGeometry x="10" y="765" width="150" height="30" as="geometry"/>
                </mxCell>
                <mxCell id="opukVP729gbeJaeNTls5-78" style="edgeStyle=orthogonalEdgeStyle;rounded=0;orthogonalLoop=1;jettySize=auto;html=1;strokeColor=#FF0000;strokeWidth=2;exitX=0.998;exitY=0.37;exitDx=0;exitDy=0;exitPerimeter=0;entryX=0.021;entryY=-0.001;entryDx=0;entryDy=0;entryPerimeter=0;" parent="1" target="hJbZo1aWGCKEWcaqYG83-28" edge="1">
                    <mxGeometry relative="1" as="geometry">
                        <mxPoint x="159.70000000000005" y="801.0999999999999" as="sourcePoint"/>
                        <mxPoint x="270" y="780" as="targetPoint"/>
                        <Array as="points">
                            <mxPoint x="160" y="811"/>
                            <mxPoint x="170" y="811"/>
                            <mxPoint x="170" y="780"/>
                            <mxPoint x="200" y="780"/>
                            <mxPoint x="200" y="700"/>
                        </Array>
                    </mxGeometry>
                </mxCell>
                <mxCell id="opukVP729gbeJaeNTls5-81" style="edgeStyle=orthogonalEdgeStyle;rounded=0;orthogonalLoop=1;jettySize=auto;html=1;strokeColor=#FF0000;strokeWidth=2;exitX=0.998;exitY=0.37;exitDx=0;exitDy=0;exitPerimeter=0;" parent="1" source="opukVP729gbeJaeNTls5-82" edge="1">
                    <mxGeometry relative="1" as="geometry">
                        <mxPoint x="75" y="616" as="sourcePoint"/>
                        <mxPoint x="275" y="585" as="targetPoint"/>
                        <Array as="points">
                            <mxPoint x="165" y="616"/>
                            <mxPoint x="175" y="616"/>
                            <mxPoint x="175" y="585"/>
                            <mxPoint x="275" y="585"/>
                        </Array>
                    </mxGeometry>
                </mxCell>
                <mxCell id="opukVP729gbeJaeNTls5-82" value="padding superior e &lt;br&gt;inferior de 30px" style="text;html=1;align=center;verticalAlign=middle;resizable=0;points=[];autosize=1;strokeColor=none;fillColor=none;" parent="1" vertex="1">
                    <mxGeometry x="35" y="595" width="110" height="30" as="geometry"/>
                </mxCell>
                <mxCell id="opukVP729gbeJaeNTls5-83" style="edgeStyle=orthogonalEdgeStyle;rounded=0;orthogonalLoop=1;jettySize=auto;html=1;strokeColor=#FF0000;strokeWidth=2;exitX=0.998;exitY=0.37;exitDx=0;exitDy=0;exitPerimeter=0;" parent="1" source="opukVP729gbeJaeNTls5-84" edge="1">
                    <mxGeometry relative="1" as="geometry">
                        <mxPoint x="50" y="441" as="sourcePoint"/>
                        <mxPoint x="250.00000000000023" y="410" as="targetPoint"/>
                        <Array as="points">
                            <mxPoint x="140" y="441"/>
                            <mxPoint x="150" y="441"/>
                            <mxPoint x="150" y="410"/>
                            <mxPoint x="250" y="410"/>
                        </Array>
                    </mxGeometry>
                </mxCell>
                <mxCell id="opukVP729gbeJaeNTls5-84" value="padding por todas&amp;nbsp;&lt;br&gt;partes de 50px" style="text;html=1;align=center;verticalAlign=middle;resizable=0;points=[];autosize=1;strokeColor=none;fillColor=none;" parent="1" vertex="1">
                    <mxGeometry x="10" y="420" width="110" height="30" as="geometry"/>
                </mxCell>
                <mxCell id="opukVP729gbeJaeNTls5-88" value="" style="endArrow=classic;html=1;rounded=0;endSize=9;targetPerimeterSpacing=1;strokeColor=#000000;strokeWidth=2;" parent="1" edge="1">
                    <mxGeometry width="50" height="50" relative="1" as="geometry">
                        <mxPoint x="162.5" y="145" as="sourcePoint"/>
                        <mxPoint x="212.5" y="146" as="targetPoint"/>
                        <Array as="points">
                            <mxPoint x="162.5" y="145"/>
                        </Array>
                    </mxGeometry>
                </mxCell>
                <mxCell id="opukVP729gbeJaeNTls5-89" value="15 izquierda" style="text;html=1;align=center;verticalAlign=middle;resizable=0;points=[];autosize=1;strokeColor=none;fillColor=none;" parent="1" vertex="1">
                    <mxGeometry x="82.5" y="135" width="80" height="20" as="geometry"/>
                </mxCell>
                <mxCell id="opukVP729gbeJaeNTls5-90" value="" style="endArrow=classic;html=1;rounded=0;endSize=9;targetPerimeterSpacing=1;strokeColor=#000000;strokeWidth=2;entryX=0;entryY=0.75;entryDx=0;entryDy=0;" parent="1" target="hJbZo1aWGCKEWcaqYG83-4" edge="1">
                    <mxGeometry width="50" height="50" relative="1" as="geometry">
                        <mxPoint x="165" y="200" as="sourcePoint"/>
                        <mxPoint x="215" y="201" as="targetPoint"/>
                        <Array as="points">
                            <mxPoint x="165" y="200"/>
                        </Array>
                    </mxGeometry>
                </mxCell>
                <mxCell id="opukVP729gbeJaeNTls5-91" value="310 izquierda" style="text;html=1;align=center;verticalAlign=middle;resizable=0;points=[];autosize=1;strokeColor=none;fillColor=none;" parent="1" vertex="1">
                    <mxGeometry x="80" y="190" width="90" height="20" as="geometry"/>
                </mxCell>
                <mxCell id="2" value="" style="endArrow=classic;startArrow=classic;html=1;rounded=0;endSize=8;strokeWidth=2;strokeColor=#FF0000;entryX=1;entryY=0;entryDx=0;entryDy=0;exitX=1;exitY=1;exitDx=0;exitDy=0;" parent="1" source="hJbZo1aWGCKEWcaqYG83-43" target="hJbZo1aWGCKEWcaqYG83-43" edge="1">
                    <mxGeometry width="50" height="50" relative="1" as="geometry">
                        <mxPoint x="210" y="845" as="sourcePoint"/>
                        <mxPoint x="340" y="845" as="targetPoint"/>
                    </mxGeometry>
                </mxCell>
                <mxCell id="3" value="400px" style="text;html=1;align=center;verticalAlign=middle;resizable=0;points=[];autosize=1;strokeColor=none;" parent="1" vertex="1">
                    <mxGeometry x="800" y="867.5" width="50" height="20" as="geometry"/>
                </mxCell>
                <mxCell id="4" style="edgeStyle=none;html=1;exitX=0.5;exitY=0;exitDx=0;exitDy=0;strokeWidth=2;strokeColor=#FF0000;startArrow=classic;startFill=1;endArrow=none;endFill=0;" parent="1" source="hJbZo1aWGCKEWcaqYG83-104" edge="1">
                    <mxGeometry relative="1" as="geometry">
                        <mxPoint x="870" y="810" as="targetPoint"/>
                        <Array as="points">
                            <mxPoint x="765" y="810"/>
                        </Array>
                    </mxGeometry>
                </mxCell>
                <mxCell id="5" value="150 alto" style="text;html=1;align=center;verticalAlign=middle;resizable=0;points=[];autosize=1;strokeColor=none;" parent="1" vertex="1">
                    <mxGeometry x="870" y="800" width="60" height="20" as="geometry"/>
                </mxCell>
                <mxCell id="6" value="" style="endArrow=classic;startArrow=classic;html=1;rounded=0;endSize=8;strokeWidth=2;exitX=1;exitY=1;exitDx=0;exitDy=0;strokeColor=#330000;" parent="1" source="hJbZo1aWGCKEWcaqYG83-108" edge="1">
                    <mxGeometry width="50" height="50" relative="1" as="geometry">
                        <mxPoint x="435" y="990" as="sourcePoint"/>
                        <mxPoint x="575" y="980" as="targetPoint"/>
                    </mxGeometry>
                </mxCell>
                <mxCell id="8" value="" style="endArrow=classic;html=1;rounded=0;endSize=9;targetPerimeterSpacing=1;strokeColor=#000000;strokeWidth=2;" parent="1" edge="1">
                    <mxGeometry width="50" height="50" relative="1" as="geometry">
                        <mxPoint x="891.4694475446429" y="940" as="sourcePoint"/>
                        <mxPoint x="500" y="980" as="targetPoint"/>
                        <Array as="points">
                            <mxPoint x="500" y="940"/>
                        </Array>
                    </mxGeometry>
                </mxCell>
                <mxCell id="9" value="150 alto" style="text;html=1;align=center;verticalAlign=middle;resizable=0;points=[];autosize=1;strokeColor=none;" parent="1" vertex="1">
                    <mxGeometry x="885" y="930" width="60" height="20" as="geometry"/>
                </mxCell>
                <mxCell id="10" style="edgeStyle=none;html=1;startArrow=classic;startFill=1;endArrow=none;endFill=0;strokeColor=#330000;strokeWidth=2;exitX=0.5;exitY=0;exitDx=0;exitDy=0;entryX=0.562;entryY=0.09;entryDx=0;entryDy=0;entryPerimeter=0;" parent="1" source="hJbZo1aWGCKEWcaqYG83-109" target="11" edge="1">
                    <mxGeometry relative="1" as="geometry">
                        <mxPoint x="870" y="970" as="targetPoint"/>
                        <Array as="points">
                            <mxPoint x="625" y="930"/>
                            <mxPoint x="863" y="930"/>
                        </Array>
                    </mxGeometry>
                </mxCell>
                <mxCell id="11" value="50 alto" style="text;html=1;align=center;verticalAlign=middle;resizable=0;points=[];autosize=1;strokeColor=none;" parent="1" vertex="1">
                    <mxGeometry x="835" y="960" width="50" height="20" as="geometry"/>
                </mxCell>
                <mxCell id="12" value="" style="endArrow=classic;html=1;rounded=0;endSize=9;targetPerimeterSpacing=1;strokeColor=#000000;strokeWidth=2;entryX=0.5;entryY=0;entryDx=0;entryDy=0;entryPerimeter=0;" parent="1" target="opukVP729gbeJaeNTls5-86" edge="1">
                    <mxGeometry width="50" height="50" relative="1" as="geometry">
                        <mxPoint x="160" y="100" as="sourcePoint"/>
                        <mxPoint x="222.5" y="156" as="targetPoint"/>
                        <Array as="points">
                            <mxPoint x="173" y="100"/>
                            <mxPoint x="260" y="100"/>
                        </Array>
                    </mxGeometry>
                </mxCell>
                <mxCell id="13" value="15 alto" style="text;html=1;align=center;verticalAlign=middle;resizable=0;points=[];autosize=1;strokeColor=none;fillColor=none;" parent="1" vertex="1">
                    <mxGeometry x="95" y="90" width="50" height="20" as="geometry"/>
                </mxCell>
                <mxCell id="14" value="Creador: Manuel SolÃ­s GÃ³mez" style="text;html=1;align=center;verticalAlign=middle;resizable=0;points=[];autosize=1;strokeColor=none;" parent="1" vertex="1">
                    <mxGeometry x="30" y="50" width="180" height="20" as="geometry"/>
                </mxCell>
                <mxCell id="15" value="" style="endArrow=classic;startArrow=classic;html=1;rounded=0;endSize=8;strokeWidth=2;strokeColor=#FF0000;entryX=1;entryY=0;entryDx=0;entryDy=0;" parent="1" edge="1">
                    <mxGeometry width="50" height="50" relative="1" as="geometry">
                        <mxPoint x="800" y="250" as="sourcePoint"/>
                        <mxPoint x="800" y="120" as="targetPoint"/>
                    </mxGeometry>
                </mxCell>
                <mxCell id="16" value="400px" style="text;html=1;align=center;verticalAlign=middle;resizable=0;points=[];autosize=1;strokeColor=none;" parent="1" vertex="1">
                    <mxGeometry x="800" y="167.5" width="50" height="20" as="geometry"/>
                </mxCell>
                <mxCell id="17" value="" style="endArrow=classic;startArrow=classic;html=1;rounded=0;endSize=8;strokeWidth=2;strokeColor=#FF0000;exitX=1;exitY=0;exitDx=0;exitDy=0;" parent="1" source="hJbZo1aWGCKEWcaqYG83-4" edge="1">
                    <mxGeometry width="50" height="50" relative="1" as="geometry">
                        <mxPoint x="350" y="224" as="sourcePoint"/>
                        <mxPoint x="670" y="220" as="targetPoint"/>
                    </mxGeometry>
                </mxCell>
                <mxCell id="20" value="160 alto" style="text;html=1;align=center;verticalAlign=middle;resizable=0;points=[];autosize=1;strokeColor=none;fillColor=none;" parent="1" vertex="1">
                    <mxGeometry x="115" y="210" width="60" height="20" as="geometry"/>
                </mxCell>
                <mxCell id="21" value="" style="endArrow=classic;html=1;rounded=0;endSize=9;targetPerimeterSpacing=1;strokeColor=#FF0000;strokeWidth=2;entryX=1;entryY=0.5;entryDx=0;entryDy=0;" parent="1" target="hJbZo1aWGCKEWcaqYG83-25" edge="1">
                    <mxGeometry width="50" height="50" relative="1" as="geometry">
                        <mxPoint x="880" y="660" as="sourcePoint"/>
                        <mxPoint x="257.5" y="681.8599999999999" as="targetPoint"/>
                        <Array as="points">
                            <mxPoint x="690" y="660"/>
                        </Array>
                    </mxGeometry>
                </mxCell>
                <mxCell id="22" value="Padding izquierdo de 10px" style="text;html=1;align=center;verticalAlign=middle;resizable=0;points=[];autosize=1;strokeColor=none;fillColor=none;" parent="1" vertex="1">
                    <mxGeometry x="900" y="655" width="160" height="20" as="geometry"/>
                </mxCell>
                <mxCell id="23" value="padding por todos lados&lt;br&gt;de 15px para todos" style="text;html=1;align=center;verticalAlign=middle;resizable=0;points=[];autosize=1;strokeColor=none;fillColor=none;" parent="1" vertex="1">
                    <mxGeometry x="20" y="800" width="140" height="30" as="geometry"/>
                </mxCell>
                <mxCell id="24" value="" style="endArrow=classic;startArrow=classic;html=1;rounded=0;endSize=8;strokeWidth=2;strokeColor=#FF0000;" parent="1" edge="1">
                    <mxGeometry width="50" height="50" relative="1" as="geometry">
                        <mxPoint x="730" y="800" as="sourcePoint"/>
                        <mxPoint x="730" y="730" as="targetPoint"/>
                    </mxGeometry>
                </mxCell>
                <mxCell id="25" value="300px" style="text;html=1;align=center;verticalAlign=middle;resizable=0;points=[];autosize=1;strokeColor=none;rotation=-90;" parent="1" vertex="1">
                    <mxGeometry x="694" y="755" width="50" height="20" as="geometry"/>
                </mxCell>
                <mxCell id="26" value="" style="endArrow=classic;startArrow=classic;html=1;rounded=0;endSize=8;strokeWidth=2;strokeColor=#FF0000;entryX=1;entryY=0;entryDx=0;entryDy=0;" parent="1" target="hJbZo1aWGCKEWcaqYG83-73" edge="1">
                    <mxGeometry width="50" height="50" relative="1" as="geometry">
                        <mxPoint x="450" y="920" as="sourcePoint"/>
                        <mxPoint x="340" y="845" as="targetPoint"/>
                    </mxGeometry>
                </mxCell>
                <mxCell id="28" style="edgeStyle=none;html=1;exitX=0.5;exitY=0;exitDx=0;exitDy=0;strokeWidth=2;strokeColor=#FF0000;startArrow=classic;startFill=1;endArrow=none;endFill=0;" parent="1" edge="1">
                    <mxGeometry relative="1" as="geometry">
                        <mxPoint x="830" y="794" as="targetPoint"/>
                        <Array as="points">
                            <mxPoint x="745" y="793.75"/>
                        </Array>
                        <mxPoint x="745" y="836.25" as="sourcePoint"/>
                    </mxGeometry>
                </mxCell>
                <mxCell id="29" value="56 alto" style="text;html=1;align=center;verticalAlign=middle;resizable=0;points=[];autosize=1;strokeColor=none;" parent="1" vertex="1">
                    <mxGeometry x="832" y="784" width="50" height="20" as="geometry"/>
                </mxCell>
                <mxCell id="30" style="edgeStyle=orthogonalEdgeStyle;rounded=0;orthogonalLoop=1;jettySize=auto;html=1;strokeColor=#FF0000;strokeWidth=2;exitX=1.012;exitY=0.719;exitDx=0;exitDy=0;exitPerimeter=0;entryX=-0.047;entryY=0.673;entryDx=0;entryDy=0;entryPerimeter=0;" parent="1" source="opukVP729gbeJaeNTls5-67" target="opukVP729gbeJaeNTls5-45" edge="1">
                    <mxGeometry relative="1" as="geometry">
                        <mxPoint x="205.0000000000001" y="1135.0344827586207" as="sourcePoint"/>
                        <mxPoint x="370" y="1129" as="targetPoint"/>
                        <Array as="points">
                            <mxPoint x="388" y="1140"/>
                        </Array>
                    </mxGeometry>
                </mxCell>
                <mxCell id="31" style="edgeStyle=orthogonalEdgeStyle;rounded=0;orthogonalLoop=1;jettySize=auto;html=1;strokeColor=#FF0000;strokeWidth=2;" parent="1" target="hJbZo1aWGCKEWcaqYG83-127" edge="1">
                    <mxGeometry relative="1" as="geometry">
                        <mxPoint x="350" y="1140" as="sourcePoint"/>
                        <mxPoint x="615.8499999999999" y="1124.07" as="targetPoint"/>
                        <Array as="points">
                            <mxPoint x="370" y="1140"/>
                            <mxPoint x="370" y="1135"/>
                            <mxPoint x="616" y="1135"/>
                        </Array>
                    </mxGeometry>
                </mxCell>
                <mxCell id="32" value="Padding superior e inferior de 30px&lt;br&gt;y de los lados a 50px" style="text;html=1;align=center;verticalAlign=middle;resizable=0;points=[];autosize=1;strokeColor=none;fillColor=none;" vertex="1" parent="1">
                    <mxGeometry x="900" y="710" width="200" height="30" as="geometry"/>
                </mxCell>
                <mxCell id="34" value="" style="endArrow=classic;html=1;rounded=0;endSize=9;targetPerimeterSpacing=1;strokeColor=#FF0000;strokeWidth=2;entryX=1.003;entryY=0.313;entryDx=0;entryDy=0;entryPerimeter=0;" edge="1" parent="1" source="32" target="hJbZo1aWGCKEWcaqYG83-42">
                    <mxGeometry width="50" height="50" relative="1" as="geometry">
                        <mxPoint x="220" y="674.79" as="sourcePoint"/>
                        <mxPoint x="257.5" y="681.27" as="targetPoint"/>
                    </mxGeometry>
                </mxCell>
            </root>
        </mxGraphModel>
    </diagram>
</mxfile>